<svg width="11" height="21" viewBox="0 0 11 21" fill="none" xmlns="http://www.w3.org/2000/svg">
<path fill-rule="evenodd" clip-rule="evenodd" d="M10.5858 0.558849L7.94737 0.554688C4.98322 0.554688 3.06766 2.48659 3.06766 5.47671V7.7461H0.414863C0.18563 7.7461 0 7.92878 0 8.15412V11.4422C0 11.6675 0.185842 11.85 0.414863 11.85H3.06766V20.1469C3.06766 20.3722 3.25329 20.5547 3.48252 20.5547H6.94366C7.17289 20.5547 7.35852 20.372 7.35852 20.1469V11.85H10.4603C10.6895 11.85 10.8751 11.6675 10.8751 11.4422L10.8764 8.15412C10.8764 8.04592 10.8326 7.94231 10.7549 7.86574C10.6772 7.78917 10.5714 7.7461 10.4613 7.7461H7.35852V5.82231C7.35852 4.89767 7.58267 4.42827 8.808 4.42827L10.5854 4.42764C10.8144 4.42764 11 4.24496 11 4.01983V0.96666C11 0.74174 10.8146 0.559265 10.5858 0.558849Z" fill="#01AAC9"/>
</svg>
