<svg width="22" height="23" viewBox="0 0 22 23" fill="none" xmlns="http://www.w3.org/2000/svg">
<path fill-rule="evenodd" clip-rule="evenodd" d="M6.875 0.554688H15.125C18.9214 0.554688 22 3.63331 22 7.42969V15.6797C22 19.4761 18.9214 22.5547 15.125 22.5547H6.875C3.07862 22.5547 0 19.4761 0 15.6797V7.42969C0 3.63331 3.07862 0.554688 6.875 0.554688ZM15.125 20.4922C17.7787 20.4922 19.9375 18.3334 19.9375 15.6797V7.42969C19.9375 4.77594 17.7787 2.61719 15.125 2.61719H6.875C4.22125 2.61719 2.0625 4.77594 2.0625 7.42969V15.6797C2.0625 18.3334 4.22125 20.4922 6.875 20.4922H15.125Z" fill="#01AAC9"/>
<path fill-rule="evenodd" clip-rule="evenodd" d="M5 12.0547C5 9.01731 7.46263 6.55469 10.5 6.55469C13.5374 6.55469 16 9.01731 16 12.0547C16 15.0921 13.5374 17.5547 10.5 17.5547C7.46263 17.5547 5 15.0921 5 12.0547ZM7.0625 12.0547C7.0625 13.9494 8.60525 15.4922 10.5 15.4922C12.3948 15.4922 13.9375 13.9494 13.9375 12.0547C13.9375 10.1586 12.3948 8.61719 10.5 8.61719C8.60525 8.61719 7.0625 10.1586 7.0625 12.0547Z" fill="#01AAC9"/>
<circle cx="16.7174" cy="6.27208" r="0.717391" fill="#01AAC9"/>
</svg>
