<svg width="1920" height="761" viewBox="0 0 1920 761" fill="none" xmlns="http://www.w3.org/2000/svg">
<path d="M0 85.7428C0 85.7428 350 -66.9515 926.5 73.188C1503 213.327 1920 38.2379 1920 38.2379V612.368C1920 612.368 1634 767.777 960.001 659.873C286.001 551.969 0 612.368 0 612.368V85.7428Z" fill="#01AAC9" fill-opacity="0.25"/>
<path d="M1920 79.5552C1920 79.5552 1668.5 258.554 960 79.5552C251.5 -99.4438 0 79.5552 0 79.5552V690.555C0 690.555 584.365 760.555 960 760.555C1335.63 760.555 1920 690.555 1920 690.555V79.5552Z" fill="#E3F6F9"/>
<mask id="path-3-inside-1_0_1038" fill="white">
<path d="M1128.02 604.252C1091.85 604.252 1056.48 593.49 1026.41 573.326C996.328 553.162 972.885 524.503 959.042 490.971C945.199 457.44 941.577 420.543 948.634 384.946C955.691 349.35 973.111 316.652 998.69 290.988C1024.27 265.325 1056.86 247.847 1092.34 240.767C1127.82 233.686 1164.59 237.32 1198.01 251.209C1231.43 265.098 1260 288.619 1280.09 318.796C1300.19 348.974 1310.92 384.453 1310.92 420.747C1310.88 469.403 1291.6 516.056 1257.31 550.461C1223.01 584.866 1176.52 604.213 1128.02 604.252ZM1295.51 218.292L1315.39 183.386L1242.33 141L1222.95 174.909C1164.97 152.318 1100.87 151.152 1042.12 171.62C983.36 192.088 933.774 232.854 902.223 286.633C870.672 340.411 859.213 403.695 869.894 465.171C880.575 526.648 912.701 582.309 960.527 622.204L941.144 655.614L1014.2 698L1033.09 665.089C1091.02 687.742 1155.09 688.974 1213.84 668.565C1272.59 648.157 1322.18 607.439 1353.75 553.698C1385.31 499.957 1396.78 436.701 1386.11 375.248C1375.45 313.796 1343.33 258.159 1295.51 218.292Z"/>
</mask>
<path d="M1310.92 420.747L1311.92 420.747V420.747H1310.92ZM1315.39 183.386L1316.26 183.881L1316.75 183.019L1315.89 182.521L1315.39 183.386ZM1242.33 141L1242.83 140.135L1241.96 139.63L1241.46 140.504L1242.33 141ZM1222.95 174.909L1222.59 175.84L1223.39 176.153L1223.82 175.405L1222.95 174.909ZM960.527 622.204L961.392 622.706L961.815 621.976L961.167 621.436L960.527 622.204ZM941.144 655.614L940.279 655.112L939.777 655.977L940.642 656.479L941.144 655.614ZM1014.2 698L1013.7 698.865L1014.57 699.369L1015.07 698.498L1014.2 698ZM1033.09 665.089L1033.45 664.157L1032.65 663.843L1032.22 664.591L1033.09 665.089ZM1128.02 603.252C1092.04 603.252 1056.88 592.549 1026.96 572.496L1025.85 574.157C1056.09 594.431 1091.65 605.252 1128.02 605.252V603.252ZM1026.96 572.496C997.049 552.442 973.734 523.939 959.966 490.59L958.118 491.353C972.036 525.066 995.607 553.883 1025.85 574.157L1026.96 572.496ZM959.966 490.59C946.198 457.241 942.596 420.544 949.615 385.141L947.653 384.752C940.558 420.542 944.199 457.639 958.118 491.353L959.966 490.59ZM949.615 385.141C956.634 349.738 973.959 317.218 999.398 291.694L997.981 290.282C972.263 316.086 954.749 348.962 947.653 384.752L949.615 385.141ZM999.398 291.694C1024.84 266.171 1057.25 248.789 1092.53 241.747L1092.14 239.786C1056.47 246.906 1023.7 264.479 997.981 290.282L999.398 291.694ZM1092.53 241.747C1127.82 234.706 1164.39 238.32 1197.63 252.133L1198.4 250.286C1164.79 236.321 1127.82 232.667 1092.14 239.786L1092.53 241.747ZM1197.63 252.133C1230.87 265.946 1259.27 289.338 1279.26 319.351L1280.93 318.242C1260.72 287.9 1232 264.251 1198.4 250.286L1197.63 252.133ZM1279.26 319.351C1299.25 349.364 1309.92 384.65 1309.92 420.747H1311.92C1311.92 384.256 1301.13 348.584 1280.93 318.242L1279.26 319.351ZM1309.92 420.746C1309.88 469.139 1290.7 515.537 1256.6 549.755L1258.01 551.167C1292.49 516.574 1311.88 469.668 1311.92 420.747L1309.92 420.746ZM1256.6 549.755C1222.49 583.973 1176.25 603.213 1128.02 603.252L1128.02 605.252C1176.78 605.213 1223.53 585.76 1258.01 551.167L1256.6 549.755ZM1296.38 218.787L1316.26 183.881L1314.52 182.891L1294.64 217.797L1296.38 218.787ZM1315.89 182.521L1242.83 140.135L1241.83 141.865L1314.89 184.251L1315.89 182.521ZM1241.46 140.504L1222.08 174.412L1223.82 175.405L1243.2 141.496L1241.46 140.504ZM1223.31 173.977C1165.11 151.3 1100.77 150.129 1041.79 170.675L1042.45 172.564C1100.98 152.175 1164.83 153.336 1222.59 175.84L1223.31 173.977ZM1041.79 170.675C982.806 191.221 933.031 232.144 901.36 286.127L903.085 287.139C934.516 233.565 983.913 192.954 1042.45 172.564L1041.79 170.675ZM901.36 286.127C869.689 340.109 858.187 403.633 868.909 465.343L870.879 465C860.238 403.757 871.654 340.713 903.085 287.139L901.36 286.127ZM868.909 465.343C879.631 527.052 911.878 582.925 959.886 622.972L961.167 621.436C913.523 581.693 881.52 526.244 870.879 465L868.909 465.343ZM959.662 621.702L940.279 655.112L942.009 656.116L961.392 622.706L959.662 621.702ZM940.642 656.479L1013.7 698.865L1014.71 697.135L941.645 654.749L940.642 656.479ZM1015.07 698.498L1033.96 665.586L1032.22 664.591L1013.34 697.502L1015.07 698.498ZM1032.73 666.02C1090.88 688.76 1155.19 689.997 1214.17 669.51L1213.51 667.621C1154.99 687.951 1091.16 686.724 1033.45 664.157L1032.73 666.02ZM1214.17 669.51C1273.14 649.023 1322.92 608.149 1354.61 554.204L1352.88 553.191C1321.44 606.728 1272.04 647.29 1213.51 667.621L1214.17 669.51ZM1354.61 554.204C1386.29 500.259 1397.81 436.763 1387.1 375.077L1385.13 375.42C1395.76 436.639 1384.33 499.655 1352.88 553.191L1354.61 554.204ZM1387.1 375.077C1376.39 313.392 1344.15 257.543 1296.15 217.524L1294.87 219.06C1342.51 258.775 1374.5 314.2 1385.13 375.42L1387.1 375.077Z" fill="#01AAC9" mask="url(#path-3-inside-1_0_1038)"/>
</svg>
