<svg width="110" height="108" viewBox="0 0 110 108" fill="none" xmlns="http://www.w3.org/2000/svg">
<circle opacity="0.68" cx="21" cy="25" r="19" fill="#01AAC9"/>
<path d="M96.0404 43.1999C96.0404 40.8152 94.105 38.8799 91.7204 38.8799C89.3358 38.8799 87.4004 40.8152 87.4004 43.1999C87.4004 44.228 87.4004 74.5717 87.4004 75.5999C87.4004 77.9845 89.3358 79.9199 91.7204 79.9199C94.105 79.9199 96.0404 77.9845 96.0404 75.5999C96.0404 74.5717 96.0404 44.228 96.0404 43.1999Z" stroke="black" stroke-width="5" stroke-miterlimit="10"/>
<path d="M61.4794 101.52C63.864 101.52 65.7994 99.5845 65.7994 97.1999C65.7994 94.8152 63.864 92.8799 61.4794 92.8799C60.4512 92.8799 51.7075 92.8799 50.6794 92.8799C48.2947 92.8799 46.3594 94.8152 46.3594 97.1999C46.3594 99.5845 48.2947 101.52 50.6794 101.52C51.7075 101.52 60.4512 101.52 61.4794 101.52Z" stroke="black" stroke-width="5" stroke-miterlimit="10"/>
<path d="M18.2812 41.0403C18.2812 20.7601 34.721 4.32031 55.0013 4.32031C75.2815 4.32031 91.7213 20.7601 91.7213 41.0403" stroke="black" stroke-width="5" stroke-miterlimit="10"/>
<path d="M96.0391 43.2002C102.005 43.2002 106.839 50.4513 106.839 59.4002C106.839 68.3448 102.005 75.6002 96.0391 75.6002" stroke="black" stroke-width="5" stroke-miterlimit="10"/>
<path d="M13.9609 43.1999C13.9609 40.8152 15.8963 38.8799 18.2809 38.8799C20.6656 38.8799 22.6009 40.8152 22.6009 43.1999C22.6009 44.228 22.6009 74.5717 22.6009 75.5999C22.6009 77.9845 20.6656 79.9199 18.2809 79.9199C15.8963 79.9199 13.9609 77.9845 13.9609 75.5999C13.9609 74.5717 13.9609 44.228 13.9609 43.1999Z" stroke="black" stroke-width="5" stroke-miterlimit="10"/>
<path d="M13.9602 43.2002C7.9964 43.2002 3.16016 50.4513 3.16016 59.4002C3.16016 68.3448 7.9964 75.6002 13.9602 75.6002" stroke="black" stroke-width="5" stroke-miterlimit="10"/>
<path d="M91.7208 79.9199C91.7208 90.7199 85.2408 97.1999 74.4408 97.1999H65.8008" stroke="black" stroke-width="5" stroke-miterlimit="10"/>
</svg>
