<svg width="743" height="789" viewBox="0 0 743 789" fill="none" xmlns="http://www.w3.org/2000/svg">
<path opacity="0.1" fill-rule="evenodd" clip-rule="evenodd" d="M637.211 60.0403L609.021 109.485C676.823 165.957 722.362 244.769 737.491 331.817C752.62 418.865 736.351 508.469 691.595 584.594C646.839 660.718 576.517 718.396 493.214 747.305C409.91 776.215 319.061 774.469 236.924 742.38L210.144 789L106.549 728.96L134.033 681.634C66.2185 625.121 20.6668 546.277 5.52145 459.194C-9.62393 372.112 6.62438 282.469 51.3617 206.291C96.099 130.113 166.409 72.3663 249.722 43.3734C333.035 14.3805 423.921 16.0318 506.131 48.0322L533.615 0L637.211 60.0403Z" fill="#01AAC9"/>
</svg>
