<svg width="28" height="20" viewBox="0 0 28 20" fill="none" xmlns="http://www.w3.org/2000/svg">
<path d="M26.531 3.52996C26.3754 2.95487 26.0718 2.43059 25.6505 2.00931C25.2292 1.58804 24.705 1.28448 24.1299 1.12886C22.0246 0.554688 13.5511 0.554688 13.5511 0.554688C13.5511 0.554688 5.07767 0.572087 2.97236 1.14626C2.39727 1.30188 1.87299 1.60544 1.45171 2.02671C1.03044 2.44799 0.72688 2.97227 0.571263 3.54736C-0.0655504 7.2882 -0.31262 12.9882 0.588662 16.5794C0.744279 17.1545 1.04784 17.6788 1.46911 18.1001C1.89039 18.5213 2.41467 18.8249 2.98976 18.9805C5.09507 19.5547 13.5685 19.5547 13.5685 19.5547C13.5685 19.5547 22.042 19.5547 24.1473 18.9805C24.7224 18.8249 25.2466 18.5213 25.6679 18.1001C26.0892 17.6788 26.3928 17.1545 26.5484 16.5794C27.22 12.8334 27.427 7.13683 26.531 3.52996Z" fill="#01AAC9"/>
<path d="M10.8555 14.1272L17.8848 10.0558L10.8555 5.98438V14.1272Z" fill="white"/>
</svg>
