<svg width="46" height="46" viewBox="0 0 46 46" fill="none" xmlns="http://www.w3.org/2000/svg">
<path fill-rule="evenodd" clip-rule="evenodd" d="M22 15.3333H7.75C6.80719 15.3333 6.33579 15.3333 6.04289 15.6261C5.75 15.919 5.75 16.3904 5.75 17.3333V22.9166C5.75 23.8594 5.75 24.3308 6.04289 24.6237C6.33579 24.9166 6.80719 24.9166 7.75 24.9166H11.5V25.8333H22V15.3333ZM11.5 27.8333V38.2499C11.5 39.1927 11.5 39.6641 11.7929 39.957C12.0858 40.2499 12.5572 40.2499 13.5 40.2499H22V27.8333H11.5ZM24 40.2499H32.5C33.4428 40.2499 33.9142 40.2499 34.2071 39.957C34.5 39.6641 34.5 39.1927 34.5 38.2499V27.8333H24V40.2499ZM34.5 25.8333V24.9166H38.25C39.1928 24.9166 39.6642 24.9166 39.9571 24.6237C40.25 24.3308 40.25 23.8594 40.25 22.9166V17.3333C40.25 16.3904 40.25 15.919 39.9571 15.6261C39.6642 15.3333 39.1928 15.3333 38.25 15.3333H24V25.8333H34.5Z" fill="white"/>
<path d="M36.4167 10.0584V6.6081C36.4167 5.24299 35.0793 4.27905 33.7842 4.71074L30.2552 5.88709C28.6351 6.42711 27.163 7.33691 25.9555 8.54443L23 11.4999V13.4166H30.3421C30.5571 13.4166 30.7706 13.3819 30.9746 13.314L35.0491 11.9558C35.8658 11.6835 36.4167 10.9193 36.4167 10.0584Z" fill="white"/>
<path d="M9.58333 10.0584V6.6081C9.58333 5.24299 10.9207 4.27905 12.2158 4.71074L15.7448 5.88709C17.3649 6.42711 18.837 7.33691 20.0445 8.54443L23 11.4999V13.4166H15.6579C15.4429 13.4166 15.2294 13.3819 15.0254 13.314L10.9509 11.9558C10.1342 11.6835 9.58333 10.9193 9.58333 10.0584Z" fill="white"/>
</svg>
